<svg xmlns="http://www.w3.org/2000/svg" version="1.1" xmlns:xlink="http://www.w3.org/1999/xlink" xmlns:svgjs="http://svgjs.dev/svgjs" viewBox="0 0 1920 1080" class="overflow-hidden rounded-md drop-shadow-lg transition duration-300" style="overflow: hidden; height: 85vh;"><rect width="1920" height="1080" fill="#281e63"></rect><g clip-path="url(&quot;#SvgjsClipPath3888&quot;)"><g transform="matrix(-0.10022910415980696,1.1456239028055073,-1.1456239028055073,-0.10022910415980696,1644.5164762166203,-474.083033475991)"><path d="M0,-1080C8.49754007569709,-972.0498476418596,49.44091779129987,-649.34764081532,50.985240454182545,-432.29908585115754C52.52956311706522,-215.2505308869951,26.876151737795002,13.766857090872548,9.265935977296081,222.2913297849745C-8.34427978320284,430.8158024790764,-49.97855958529013,605.8143841241632,-54.67605410881097,818.847750313454C-59.37354863233182,1031.8811165027448,-28.031706848630833,1276.9661519729616,-18.919031163829004,1500.4915269207193C-9.806355479027175,1724.016901868477,-3.1531718606381673,2050.081921153453,0,2160L 1920 2160 L 1920 -1080 Z" fill="url(&quot;#SvgjsLinearGradient3879&quot;)"></path><path d="M213.33333333333331,-1080C210.0564969794587,-997.6371352608289,186.87590715808295,-764.4790577866072,193.6723152100856,-585.8228115649733C200.46872326208825,-407.16656534333947,242.47923768613197,-201.94845066750085,254.1117816453492,-8.062522670196678C265.7443256045664,185.8234053271075,276.3069266379362,402.1902408989529,263.467578965389,577.4927564188516C250.62823129284178,752.7952719387504,182.4091619582432,871.8302352992752,177.07569561006585,1043.7525704491957C171.7422292618885,1215.6749055991163,225.4238412557803,1422.9855290599075,231.4667808763249,1609.026767318375C237.50972049686948,1795.0680055768426,216.35557459049858,2068.171127886396,213.33333333333331,2160L 1920 2160 L 1920 -1080 Z" fill="url(&quot;#SvgjsLinearGradient3880&quot;)"></path><path d="M426.66666666666663,-1080C419.6697041958818,-944.7348512574539,384.9248691355321,-540.7217000593116,384.68489184195784,-268.40910754472316C384.44491454838357,3.90348496986536,414.87997517679224,279.6507739559042,425.22680290522095,553.8755550875313C435.57363063364966,828.1003362191584,446.52588091895575,1109.252171759628,446.76585821253,1376.9395792450396C447.0058355061043,1644.626986730451,430.0165319243105,2029.4899298741732,426.66666666666663,2160L 1920 2160 L 1920 -1080 Z" fill="url(&quot;#SvgjsLinearGradient3881&quot;)"></path><path d="M640,-1080C632.3481137230647,-965.2090831065448,595.8737214279884,-613.942283625523,594.0886823383884,-391.2544986392687C592.3036432487884,-168.56671365301438,620.6657776233227,37.46747176639337,629.2897654624002,256.126709917526C637.9137533014776,474.7859480686586,653.759586591794,718.6161692090222,645.8326093728531,920.700930267527C637.9056321539122,1122.7856913260318,582.700003710897,1262.0854313131424,581.7279021487549,1468.6352762685547C580.7558005866127,1675.185121223967,630.2879836914592,2044.772546044759,640,2160L 1920 2160 L 1920 -1080 Z" fill="url(&quot;#SvgjsLinearGradient3882&quot;)"></path><path d="M853.3333333333333,-1080C859.8066871685645,-948.6471396858376,882.6833062671442,-562.7288363021382,892.1734563447209,-291.88283811502583C901.6636064222976,-21.036839927913377,916.264521627908,273.12161612983374,910.274233798793,545.0759891226747C904.283945969678,817.0303621155158,865.7218794476075,1070.6893980291327,856.231729370031,1339.8433998420203C846.7415792924544,1608.997401654908,853.8163993394495,2023.3072333070033,853.3333333333333,2160L 1920 2160 L 1920 -1080 Z" fill="url(&quot;#SvgjsLinearGradient3883&quot;)"></path><path d="M1066.6666666666667,-1080C1076.6712304899743,-1004.3065083291649,1133.4828191102076,-773.4208645162508,1126.6940496065115,-625.8390499749897C1119.9052801028154,-478.2572354337286,1038.4183694688932,-354.33706415297445,1025.9340496444902,-194.50911275243337C1013.4497298200873,-34.681161351892285,1037.5598955826079,170.56217521888746,1051.788130660094,333.1286584282567C1066.0163657375804,495.69514163762597,1117.9604436546967,629.3230490211708,1111.3034601094075,780.8897865037821C1104.6464765641183,932.4565239863934,1017.649755247264,1097.587732737426,1011.8462293883592,1242.5290833239246C1006.0427035294545,1387.4704339104233,1067.3455654095944,1497.6260705767615,1076.482304955979,1650.537890022774C1085.6190445023637,1803.4497094687865,1068.302606381552,2075.089648337129,1066.6666666666667,2160L 1920 2160 L 1920 -1080 Z" fill="url(&quot;#SvgjsLinearGradient3884&quot;)"></path><path d="M1280,-1080C1286.5734329477573,-1008.0244793579952,1317.235246674892,-796.7755359837707,1319.440597686543,-648.1468761479713C1321.645948698194,-499.51821631217183,1306.220952741243,-347.0821284291434,1293.2321060699048,-188.22804098520334C1280.2432593985666,-29.373953541263262,1246.7661024569436,153.01546127474367,1241.507517658514,304.97764851566916C1236.2489328600843,456.9398357565947,1261.9488675814343,568.691408458159,1261.6805972793265,723.5450824603497C1261.4123269772188,878.3987564625404,1242.9801370684233,1082.2532818875204,1239.897895845867,1234.0996925288132C1236.8156546233106,1385.946103170106,1236.5034659183,1480.3068283962418,1243.1871499439887,1634.6235463081064C1249.8708339696775,1788.940264219971,1273.864524990665,2072.437257718018,1280,2160L 1920 2160 L 1920 -1080 Z" fill="url(&quot;#SvgjsLinearGradient3885&quot;)"></path><path d="M1493.3333333333333,-1080C1486.8911364194857,-980.7192350084377,1450.8384443763698,-703.7376199732158,1454.680151850248,-484.3154100506265C1458.5218593241261,-264.89320012803717,1502.9153584174712,18.67897928778089,1516.3835781766018,236.53325953553613C1529.8517979357323,454.38753978329134,1545.4623283471701,603.0601442929179,1535.4894704050307,822.8102714359048C1525.5166124628913,1042.5603985788919,1463.5724533690486,1332.1690676327753,1456.5464305237656,1555.034022393458C1449.5204076784826,1777.8989771541405,1487.202182865072,2059.1723370655764,1493.3333333333333,2160L 1920 2160 L 1920 -1080 Z" fill="url(&quot;#SvgjsLinearGradient3886&quot;)"></path><path d="M1706.6666666666665,-1080C1714.3779825197466,-966.9185426126996,1758.737567739557,-613.0780800347719,1752.9345617851473,-401.5112556761982C1747.1315558307374,-189.94443131762446,1669.994294065369,-32.22950211065228,1671.8486309402072,189.40094615144227C1673.7029678150452,411.0313944135368,1767.3891540153452,705.5202054496136,1764.0605830341763,928.2714338963691C1760.7320120530073,1151.0226623431247,1661.4428577811123,1320.62022248137,1651.8772050531938,1525.9083168319753C1642.3115523252754,1731.1964111825805,1697.5350897310877,2054.318052805329,1706.6666666666665,2160L 1920 2160 L 1920 -1080 Z" fill="url(&quot;#SvgjsLinearGradient3887&quot;)"></path></g></g><defs><linearGradient x1="0.1" y1="0" x2="0" y2="1" id="SvgjsLinearGradient3879"><stop stop-color="#281e63" offset="0"></stop><stop stop-color="#1e2063" offset="0"></stop></linearGradient><linearGradient x1="0.1" y1="0" x2="0" y2="1" id="SvgjsLinearGradient3880"><stop stop-color="#251c5c" offset="0"></stop><stop stop-color="#1c1e5c" offset="0.1111111111111111"></stop></linearGradient><linearGradient x1="0.1" y1="0" x2="0" y2="1" id="SvgjsLinearGradient3881"><stop stop-color="#221a55" offset="0"></stop><stop stop-color="#1a1c55" offset="0.2222222222222222"></stop></linearGradient><linearGradient x1="0.1" y1="0" x2="0" y2="1" id="SvgjsLinearGradient3882"><stop stop-color="#20184e" offset="0"></stop><stop stop-color="#18194e" offset="0.3333333333333333"></stop></linearGradient><linearGradient x1="0.1" y1="0" x2="0" y2="1" id="SvgjsLinearGradient3883"><stop stop-color="#1d1647" offset="0"></stop><stop stop-color="#161747" offset="0.4444444444444444"></stop></linearGradient><linearGradient x1="0.1" y1="0" x2="0" y2="1" id="SvgjsLinearGradient3884"><stop stop-color="#1a1340" offset="0"></stop><stop stop-color="#131340" offset="0.5555555555555556"></stop></linearGradient><linearGradient x1="0.1" y1="0" x2="0" y2="1" id="SvgjsLinearGradient3885"><stop stop-color="#171139" offset="0"></stop><stop stop-color="#111239" offset="0.6666666666666666"></stop></linearGradient><linearGradient x1="0.1" y1="0" x2="0" y2="1" id="SvgjsLinearGradient3886"><stop stop-color="#140f32" offset="0"></stop><stop stop-color="#0f1032" offset="0.7777777777777778"></stop></linearGradient><linearGradient x1="0.1" y1="0" x2="0" y2="1" id="SvgjsLinearGradient3887"><stop stop-color="#110d2b" offset="0"></stop><stop stop-color="#0d0e2b" offset="0.8888888888888888"></stop></linearGradient><clipPath id="SvgjsClipPath3888"><rect width="1920" height="1080"></rect></clipPath></defs></svg>